<svg width="83" height="320" viewBox="0 0 83 320" fill="none" xmlns="http://www.w3.org/2000/svg">
<path d="M74.6713 301.921C77.1603 301.921 79.1707 302.765 80.7024 304.452C82.2341 306.139 83 308.429 83 311.322C83 313.974 82.2341 316.023 80.7024 317.469C79.3622 319.156 77.3518 320 74.6713 320H55.7163C47.1003 320 40.5905 317.107 36.1868 311.322C31.7832 305.537 29.5813 297.22 29.5813 286.373V198.508C29.5813 188.625 27.9539 181.394 24.699 176.814C21.6355 172.234 16.1788 169.702 8.32872 169.22C2.77624 168.497 0 165.363 0 159.819C0 157.409 0.670126 155.36 2.01038 153.672C3.5421 151.985 5.64821 151.021 8.32872 150.78C16.1788 150.057 21.6355 147.405 24.699 142.825C27.9539 138.245 29.5813 131.013 29.5813 121.13V33.6271C29.5813 22.7797 31.7832 14.4633 36.1868 8.67796C40.5905 2.89266 47.1003 0 55.7163 0H74.6713C77.3518 0 79.3622 0.843697 80.7024 2.53109C82.2341 3.97741 83 6.02637 83 8.67796C83 11.5706 82.2341 13.8606 80.7024 15.548C79.1707 17.2354 77.1603 18.0791 74.6713 18.0791H59.4498C51.0254 18.0791 46.8131 23.6234 46.8131 34.7119V123.299C46.8131 133.665 44.8028 141.981 40.782 148.249C36.9527 154.275 32.1661 158.132 26.4221 159.819C32.1661 161.507 36.9527 165.484 40.782 171.751C44.8028 177.778 46.8131 185.974 46.8131 196.339V285.288C46.8131 296.377 51.0254 301.921 59.4498 301.921H74.6713Z" fill="#DBEAF7"/>
</svg>
