<svg width="83" height="320" viewBox="0 0 83 320" fill="none" xmlns="http://www.w3.org/2000/svg">
<path d="M74.6424 150.78C80.2141 151.021 83 154.034 83 159.819C83 165.363 80.2141 168.497 74.6424 169.22C66.9572 169.702 61.5775 172.234 58.5035 176.814C55.6215 181.153 54.1806 188.384 54.1806 198.508L53.6042 286.373C53.6042 297.22 51.3947 305.537 46.9757 311.322C42.5567 317.107 36.0243 320 27.3785 320H8.35764C5.66782 320 3.5544 319.156 2.01736 317.469C0.672454 316.023 0 313.974 0 311.322C0 308.429 0.768518 306.139 2.30556 304.452C3.84259 302.765 5.85995 301.921 8.35764 301.921H23.6319C32.0856 301.921 36.3125 296.377 36.3125 285.288V196.339C36.3125 185.974 38.2338 177.778 42.0764 171.751C46.1111 165.484 50.9144 161.507 56.4861 159.819C50.9144 158.132 46.1111 154.275 42.0764 148.249C38.2338 141.981 36.3125 133.665 36.3125 123.299V34.7119C36.3125 23.6234 32.0856 18.0791 23.6319 18.0791H8.35764C5.85995 18.0791 3.84259 17.2354 2.30556 15.548C0.768518 13.8606 0 11.5706 0 8.67796C0 6.02637 0.672454 3.97741 2.01736 2.53109C3.5544 0.843697 5.66782 0 8.35764 0H27.3785C36.0243 0 42.5567 2.89266 46.9757 8.67796C51.3947 14.4633 53.6042 22.7797 53.6042 33.6271V121.13C53.6042 131.013 55.1412 138.245 58.2153 142.825C61.2894 147.405 66.765 150.057 74.6424 150.78Z" fill="#DBEAF7"/>
</svg>
